<svg xmlns="http://www.w3.org/2000/svg" viewBox="0 0 566.93 566.93"><title>Mesa de trabajo 1</title><g style="isolation:isolate"><g id="Gopher"><ellipse cx="411.24" cy="86.69" rx="42.08" ry="41.08" style="fill:#00c8ff"/><path d="M410.92,45.07a42.82,42.82,0,0,0-12.94,2c20.62,2.65,36.54,19.86,36.54,40.71,0,18.28-12.24,33.77-29.14,39.09a42.14,42.14,0,0,0,5.54.37c23.24,0,42.07-18.39,42.07-41.08S434.16,45.07,410.92,45.07Z" style="fill:#00b3ff"/><path d="M411.24,131.47c-25.24,0-45.77-20.09-45.77-44.78S386,41.91,411.24,41.91,457,62,457,86.69,436.48,131.47,411.24,131.47Zm0-82.16c-21.16,0-38.37,16.77-38.37,37.38s17.21,37.38,38.37,37.38,38.38-16.77,38.38-37.38S432.4,49.31,411.24,49.31Z" style="fill:#00090f"/><ellipse cx="405.27" cy="90.78" rx="23.81" ry="17.01" transform="matrix(0.84, -0.55, 0.55, 0.84, 16, 235.54)" style="fill:#00090f"/><ellipse cx="150.6" cy="86.69" rx="42.08" ry="41.08" style="fill:#00c8ff"/><ellipse cx="156.58" cy="90.78" rx="17.01" ry="23.81" transform="translate(-4.87 172.58) rotate(-56.97)" style="fill:#00090f"/><g style="opacity:0.5;mix-blend-mode:screen"><path d="M151.23,44.1a43.07,43.07,0,0,1,12.93,2C143.55,48.73,127.63,66,127.63,86.8c0,18.28,12.23,33.76,29.14,39.09a42.14,42.14,0,0,1-5.54.37c-23.24,0-42.08-18.39-42.08-41.08S128,44.1,151.23,44.1Z" style="fill:#00c9ff"/></g><path d="M150.6,131.47c-25.24,0-45.77-20.09-45.77-44.78s20.53-44.78,45.77-44.78S196.38,62,196.38,86.69,175.84,131.47,150.6,131.47Zm0-82.16c-21.16,0-38.37,16.77-38.37,37.38s17.21,37.38,38.37,37.38S189,107.3,189,86.69,171.76,49.31,150.6,49.31Z" style="fill:#00090f"/><path d="M384.21,536.25s-4.18,10.27-17.55,2c0,0-12.29-14.58-26.74-17.18,0,0,23-9.29,28.41-15.21,0,0,25.91,12.64,21.73,25.28,0,0-1.67,5.14-5.85,5.14L376.27,524" style="fill:#ff9544"/><path d="M189.24,536.25s4.18,10.27,17.55,2c0,0,12.09-14.58,26.75-17.18,0,0-23-9.29-28.42-15.21,0,0-25.91,12.64-21.73,25.28,0,0,1.67,5.14,5.85,5.14L197.18,524" style="fill:#ff9544"/><g style="opacity:0.5;mix-blend-mode:screen"><path d="M206.82,532.85c-4,3.54-13.75.23-13.92-3.25-2.86-8.65,8.36-17.29,15.73-21.89a17.52,17.52,0,0,1-2.43-2.1s-25.91,12.64-21.73,25.29c0,0,1.67,5.13,5.85,5.13C197.81,540.19,202.93,538.12,206.82,532.85Z" style="fill:#ff9544"/></g><path d="M366.71,533.5c4,3.54,13.75.22,13.92-3.25,2.86-8.65-8.36-17.29-15.73-21.9a16.87,16.87,0,0,0,2.43-2.09s25.91,12.64,21.73,25.28c0,0-1.67,5.14-5.85,5.14C375.72,540.84,370.6,538.77,366.71,533.5Z" style="fill:#ff7b38"/><path d="M197.42,545.17a12.92,12.92,0,0,1-4-.63,12.56,12.56,0,0,1-6.47-4.91c-4-1.11-6.26-5-7-7.37-5-15.26,20.68-28.32,23.63-29.76a3.71,3.71,0,0,1,4.35.82c3.54,3.87,18.49,10.82,27.07,14.29a3.7,3.7,0,0,1-.74,7.07c-13.11,2.33-24.43,15.77-24.54,15.91a3.75,3.75,0,0,1-.9.78C204.67,543.9,200.88,545.17,197.42,545.17Zm-3.76-8.94a5.1,5.1,0,0,0,2.1,1.3c2.15.66,5.12-.09,8.61-2.16,1.81-2.08,9.11-10,18.87-14.74-6.23-2.85-14.15-6.79-18.68-10.34-7.83,4.3-19.82,13.1-17.65,19.66a6.79,6.79,0,0,0,.92,1.67l6.25-9.63a3.7,3.7,0,1,1,6.21,4Z" style="fill:#00090f"/><path d="M376,545.17c-3.45,0-7.24-1.27-11.32-3.8a3.77,3.77,0,0,1-.88-.76c-.11-.13-11.64-13.6-24.57-15.93a3.7,3.7,0,0,1-.73-7.07c8.59-3.47,23.53-10.42,27.07-14.29a3.72,3.72,0,0,1,4.36-.82c2.94,1.44,28.66,14.5,23.61,29.77-.78,2.41-3.06,6.25-7,7.36a12.51,12.51,0,0,1-6.47,4.91A12.87,12.87,0,0,1,376,545.17Zm-6.95-9.81c3.49,2.08,6.46,2.83,8.62,2.17a5.06,5.06,0,0,0,2.09-1.3L373.17,526a3.7,3.7,0,1,1,6.21-4l6.24,9.63a6.83,6.83,0,0,0,.92-1.65c2.18-6.6-9.82-15.4-17.65-19.68-4.54,3.56-12.48,7.51-18.72,10.35C359.89,525.41,367.26,533.31,369.08,535.36Z" style="fill:#00090f"/><path d="M279.74,32.52h0c-87,0-161.49,57.67-156.77,139.9-.09,34.22,5.25,65.41,5.16,99.63-.08,30.86-5.59,64.76-5.67,95.62-.46,8.84-3.09,77.22,51.76,124.83,27,23.41,63.16,37.87,105.52,37.87h0c93.35,8.24,173-75.91,165.45-155.73-.65-35.11-8.6-67.47-9.26-102.59-.55-29.89,6.19-62.53,5.64-92.42C441.32,169,445.69,40.28,279.74,32.52Z" style="fill:#00c8ff"/><path d="M127.28,414.26l314.76.19s-13.27,63.31-76.18,96.92c0,0-39.67,27-106,17.9,0,0-53.22-3.62-91.32-42C168.5,487.26,136.33,457.41,127.28,414.26Z" style="fill:#9b8668"/><g style="opacity:0.5"><path d="M242.53,435.33s-10.59,66.13-21.61,81.91a63,63,0,0,0,33,9.18s-19.67-9.62-21.18-15C232.7,511.4,249.12,474.77,242.53,435.33Z" style="fill:#74654e"/></g><g style="opacity:0.5"><path d="M326.76,435.82s10.59,66.13,21.61,81.9a63,63,0,0,1-32.95,9.19s19.66-9.62,21.17-15C336.59,511.89,320.17,475.26,326.76,435.82Z" style="fill:#74654e"/></g><path d="M462,312.54s10.2-3.4,1.12-13.57c0,0-17.06-16.89-36.69-12l-1.87,22.61s8.2-4.18,27.9,8.53c0,0,10.21.77,9.54-5.58a35.62,35.62,0,0,1-7.65-3.41" style="fill:#ff9544"/><polygon points="138.96 251 139.07 408.61 426.51 407.41 424.07 252.3 303.22 304.46 264.87 304.46 138.96 251" style="fill:#fff8d1"/><path d="M216.55,314.88s36.57,16.72,25.77,87.28Z" style="fill:#cfd2a9"/><path d="M351.29,314.66s-36.58,16.72-25.77,87.28Z" style="fill:#cfd2a9"/><path d="M403.75,82.86S457.24,133.91,438.44,224l-124.81,62.4,68.64-53.51a104.94,104.94,0,0,0,35.55-114.29A291.38,291.38,0,0,0,403.75,82.86Z" style="fill:#00b3ff"/><path d="M102,312.54s-10.2-3.4-1.12-13.57c0,0,17.06-16.89,36.69-12l1.87,22.61s-8.2-4.18-27.9,8.53c0,0-10.21.77-9.54-5.58a35.62,35.62,0,0,0,7.65-3.41" style="fill:#ff9544"/><g style="opacity:0.5;mix-blend-mode:screen"><path d="M108.88,300.15s11.66-11.53,26.14-11l-.06-.75c-16.83-4.19-31.45,10.28-31.45,10.28-7.78,8.71,1,11.63,1,11.63l2.07-.93C105.25,307.57,104.88,304.62,108.88,300.15Z" style="fill:#ff9544"/><path d="M109.84,311.78a7.5,7.5,0,0,1-3.19-2.26c-1.25.49-2.18.78-2.18.78-.43,4.05,4.3,4.72,6.75,4.79A3.46,3.46,0,0,1,109.84,311.78Z" style="fill:#ff9544"/></g><path d="M454.85,301.07s-11.66-11.53-26.14-11l.07-.75c16.82-4.2,31.44,10.28,31.44,10.28,7.78,8.71-1,11.62-1,11.62l-2.07-.92C458.48,308.48,458.85,305.54,454.85,301.07Z" style="fill:#ff7b38"/><path d="M453.89,312.7a7.6,7.6,0,0,0,3.19-2.26c1.25.49,2.18.77,2.18.77.43,4.05-4.3,4.72-6.75,4.8A3.42,3.42,0,0,0,453.89,312.7Z" style="fill:#ff7b38"/><path d="M110.37,321.86c-2.47,0-7.17-.42-10-3.31a7.55,7.55,0,0,1-2-3.64,10.25,10.25,0,0,1-4.73-6c-1-3.82.46-8,4.4-12.39l.15-.17c.76-.75,18.79-18.29,40.2-12.95a3.71,3.71,0,0,1,2.79,3.29l1.87,22.61a3.73,3.73,0,0,1-1.63,3.54,3.43,3.43,0,0,1-3.67.1c-.8-.25-8.15-2.11-24.29,8.3a3.79,3.79,0,0,1-1.72.58C111.51,321.83,111,321.86,110.37,321.86Zm-2.46-7.63a14.13,14.13,0,0,0,2.45.22c11.89-7.5,20-9.19,25-9.2l-1.26-15.18c-15.69-2.27-29.44,10.4-30.56,11.47-2,2.25-3,4.29-2.68,5.45a3,3,0,0,0,1.37,1.56,28.15,28.15,0,0,0,5.37-2.5,3.7,3.7,0,1,1,4.08,6.17A26.45,26.45,0,0,1,107.91,314.23Z" style="fill:#00090f"/><path d="M453.56,321.86c-.65,0-1.14,0-1.41-.05a3.75,3.75,0,0,1-1.72-.58c-16.87-10.88-24.15-8.37-24.22-8.34a3.7,3.7,0,0,1-5.37-3.6l1.87-22.61a3.71,3.71,0,0,1,2.79-3.29c21.41-5.34,39.44,12.2,40.2,12.95l.15.17c3.94,4.4,5.42,8.57,4.4,12.39a10.23,10.23,0,0,1-4.74,6,7.45,7.45,0,0,1-2,3.64C460.73,321.44,456,321.86,453.56,321.86Zm-25-16.61c4.92,0,13.07,1.7,25,9.2a14.13,14.13,0,0,0,2.45-.22,26.45,26.45,0,0,1-3.74-2,3.7,3.7,0,1,1,4.08-6.17,28.07,28.07,0,0,0,5.36,2.5A3,3,0,0,0,463.1,307c.3-1.18-.7-3.2-2.68-5.44-1.09-1-14.87-13.74-30.57-11.47Z" style="fill:#00090f"/><g style="opacity:0.5;mix-blend-mode:screen"><path d="M118,375.94c.66-35.12,8.61-67.48,9.26-102.59.56-29.89-6.19-62.54-5.63-92.43.24-10.58,1.85-139.24,167.81-147,0,0-153.46,22.37-134.66,167.59,3.84,29.65,1.85,66.71,1.3,96.6-.65,35.12-14.08,66.06-14.74,101.18-3.24,34.21,9.54,69.2,32.55,97.38C136.67,466.23,113.79,420.42,118,375.94Z" style="fill:#00c9ff"/></g><path d="M292.38,534.63q-6.39,0-12.81-.56c-41.32,0-78.59-13.44-107.78-38.78-54.26-47.1-53.71-114.44-53-127.72,0-15.56,1.47-32.06,2.85-48s2.78-32.22,2.82-47.5c0-17-1.28-33.51-2.57-49.51s-2.63-32.78-2.59-50c-2-35.13,9.88-67.38,34.32-93.26,30.27-32.06,76.25-50.44,126.15-50.44h.17C348.79,32.05,397.29,56,424.07,99.89c9.52,15.63,20.92,41.91,21.19,78.4,0,.52,0,.94,0,1.25.28,15.18-1.3,31.18-2.83,46.66-1.52,15.27-3.08,31.05-2.81,45.78.33,17.36,2.5,34.41,4.6,50.89,2.13,16.65,4.32,33.85,4.66,51.56,3.62,38.62-12.93,80.5-44.29,112.06C373.81,517.48,333.51,534.63,292.38,534.63ZM279.65,36.22c-47.84,0-91.82,17.56-120.68,48.12-23,24.39-34.2,54.78-32.3,87.87v.22c0,17,1.29,33.51,2.57,49.51,1.3,16.15,2.64,32.85,2.59,50.12,0,15.58-1.47,32.12-2.85,48.12-1.36,15.84-2.78,32.22-2.82,47.5v.19c-.66,12.45-1.31,76.87,50.48,121.83,27.87,24.19,63.51,37,103.1,37l.32,0c43.35,3.83,86.82-12.73,119.29-45.42C429.21,451.21,445,411.48,441.51,375a2.46,2.46,0,0,1,0-.28c-.32-17.36-2.49-34.41-4.6-50.9-2.13-16.68-4.33-33.94-4.66-51.69C432,257,433.54,241,435.07,225.47c1.51-15.26,3.07-31.05,2.8-45.78,0-.32,0-.78,0-1.35C437.56,137.83,421.57,42.9,279.65,36.22Z" style="fill:#00090f"/><rect x="263.84" y="188.04" width="21.76" height="34.56" rx="10.88" style="fill:#fffcff"/><rect x="285.57" y="188.04" width="21.76" height="34.56" rx="10.88" style="fill:#fffcff"/><g style="opacity:0.4"><path d="M299.65,193.18a9.49,9.49,0,0,1,2,5.81v11.19a9.52,9.52,0,0,1-9.52,9.52h0a9.58,9.58,0,0,1-3.27-.59,9.51,9.51,0,0,0,17-5.81V202.11A9.51,9.51,0,0,0,299.65,193.18Z" style="fill:#d1c6ca"/></g><g style="opacity:0.4"><path d="M278,193a9.44,9.44,0,0,1,2,5.8V210a9.51,9.51,0,0,1-9.52,9.51h0a9.34,9.34,0,0,1-3.27-.59,9.51,9.51,0,0,0,17-5.81V201.89A9.5,9.5,0,0,0,278,193Z" style="fill:#d1c6ca"/></g><path d="M296.45,226.3a14.6,14.6,0,0,1-14.58-14.58v-12.8a14.58,14.58,0,0,1,29.16,0v12.8A14.6,14.6,0,0,1,296.45,226.3Zm0-34.56a7.19,7.19,0,0,0-7.18,7.18v12.8a7.18,7.18,0,1,0,14.36,0v-12.8A7.19,7.19,0,0,0,296.45,191.74Z" style="fill:#00090f"/><ellipse cx="345" cy="121.61" rx="46.25" ry="45.16" style="fill:#fffcff"/><g style="opacity:0.4"><path d="M358.34,78.19a44.71,44.71,0,0,1,18.43,36.07c0,24.94-20.7,45.16-46.25,45.16a47.42,47.42,0,0,1-12.69-1.74,46.78,46.78,0,0,0,27.82,9.08c25.54,0,46.25-20.21,46.25-45.15C391.9,101,377.71,83.58,358.34,78.19Z" style="fill:#d1c6ca"/></g><ellipse cx="220.5" cy="121.61" rx="46.25" ry="45.16" style="fill:#fffcff"/><path d="M345,170.46c-27.54,0-49.95-21.91-49.95-48.85S317.46,72.75,345,72.75,395,94.67,395,121.61,372.55,170.46,345,170.46Zm0-90.31c-23.46,0-42.55,18.6-42.55,41.46s19.09,41.45,42.55,41.45,42.55-18.59,42.55-41.45S368.46,80.15,345,80.15Z" style="fill:#00090f"/><ellipse cx="365.86" cy="103.81" rx="13.24" ry="13.03" style="fill:#00090f"/><ellipse cx="203.96" cy="104.79" rx="13.24" ry="13.03" style="fill:#00090f"/><ellipse cx="200.65" cy="98.28" rx="3.31" ry="3.26" style="fill:#fff"/><ellipse cx="369.17" cy="98.28" rx="3.31" ry="3.26" style="fill:#fff"/><path d="M287.13,534.88a203.34,203.34,0,0,1-27.7-1.92c-3.66-.27-55.44-4.74-93.5-43-2-1.89-33.19-31.6-42.27-74.9a3.7,3.7,0,0,1,3.62-4.46h0l314.77.19a3.75,3.75,0,0,1,2.87,1.37,3.71,3.71,0,0,1,.75,3.09c-.56,2.66-14.33,65.28-77.9,99.33C364.93,516.43,335.91,534.88,287.13,534.88ZM131.94,418c9.88,39.13,38.78,66.29,39.08,66.57l.11.11c36.69,37,88.42,40.9,88.94,40.93l.25,0c64.22,8.84,103.07-17,103.45-17.3a3.13,3.13,0,0,1,.34-.21c51-27.26,68.73-75.17,73.12-90Z" style="fill:#00090f"/><path d="M429.38,432.94c-48.76,0-97.8,6.85-146.56,6.85-48.94,0-97.61-6.85-146.55-6.85V397.79c48.58,0,97.36,9.48,145.94,9.48,49.12,0,98-9.48,147.17-9.48Z" style="fill:#9c3b0d"/><path d="M282.82,443.49c-24.6,0-49.47-1.75-73.53-3.44s-48.68-3.41-73-3.41a3.7,3.7,0,0,1-3.7-3.7V397.79a3.7,3.7,0,0,1,3.7-3.7c24.47,0,49.31,2.42,73.33,4.76,23.84,2.32,48.5,4.72,72.61,4.72,24.38,0,49.21-2.4,73.23-4.72,24.18-2.34,49.2-4.76,73.93-4.76a3.71,3.71,0,0,1,3.71,3.7v35.15a3.7,3.7,0,0,1-3.71,3.7c-24.25,0-49,1.74-73,3.41S307.33,443.49,282.82,443.49ZM140,429.25c23.39.16,47,1.82,69.84,3.42,23.93,1.68,48.67,3.42,73,3.42s49.05-1.74,73-3.42c22.89-1.6,46.52-3.25,69.83-3.42V401.51c-23.19.22-46.72,2.5-69.52,4.7C332,408.55,307,411,282.21,411c-24.47,0-49.31-2.42-73.33-4.76-22.63-2.2-46-4.47-68.91-4.7Z" style="fill:#00090f"/><polygon points="250.22 329.8 130.6 265.94 126.73 228.15 276.67 297.06 250.22 329.8" style="fill:#fff8d1"/><polygon points="321.48 329.38 433 265.85 436.65 225.59 293.3 296.29 321.48 329.38" style="fill:#fff8d1"/><path d="M250.22,333.5a3.73,3.73,0,0,1-1.74-.43L128.86,269.21a3.72,3.72,0,0,1-1.94-2.89l-3.87-37.79a3.7,3.7,0,0,1,5.23-3.74L278.21,293.7a3.7,3.7,0,0,1,1.34,5.68L253.1,332.13A3.7,3.7,0,0,1,250.22,333.5ZM134.09,263.61,249.26,325.1l21.54-26.66L131.07,234.22Z" style="fill:#00090f"/><path d="M321.72,333.08a3.72,3.72,0,0,1-2.82-1.3l-28.18-33.1A3.7,3.7,0,0,1,291.9,293l143.36-70.7a3.7,3.7,0,0,1,5.32,3.65l-3.65,40.26a3.7,3.7,0,0,1-1.85,2.88L323.55,332.59A3.64,3.64,0,0,1,321.72,333.08ZM299.44,297.5l23.11,27.15,107.19-61.06,2.87-31.77Z" style="fill:#00090f"/><path d="M285.47,394.37l-28.69-21.23,29.18-64,29.55,62.77S293.9,391,285.47,394.37Z" style="fill:#ff3d00"/><g style="opacity:0.5"><path d="M288.56,310.53,279,325.44l23.82,43.82-17,24.9c8-6.8,29.32-22.92,29.32-22.92Z" style="fill:#9e1e07"/></g><rect x="263.8" y="402.14" width="44.7" height="43.64" rx="12.64" style="fill:#ffad50"/><path d="M295.86,449.48H276.43a16.35,16.35,0,0,1-16.33-16.34V414.77a16.34,16.34,0,0,1,16.33-16.33h19.43a16.34,16.34,0,0,1,16.33,16.33v18.37A16.35,16.35,0,0,1,295.86,449.48Zm-19.43-43.64a9,9,0,0,0-8.93,8.93v18.37a9,9,0,0,0,8.93,8.94h19.43a9,9,0,0,0,8.93-8.94V414.77a9,9,0,0,0-8.93-8.93Z" style="fill:#00090f"/><ellipse cx="286.15" cy="423.96" rx="10.87" ry="10.62" style="fill:#00090f"/><g style="opacity:0.4"><path d="M233.22,77.54a44.74,44.74,0,0,1,18.43,36.07c0,24.94-20.71,45.16-46.25,45.16A47.3,47.3,0,0,1,192.71,157a46.76,46.76,0,0,0,27.81,9.09c25.55,0,46.25-20.22,46.25-45.16C266.77,100.32,252.59,82.93,233.22,77.54Z" style="fill:#d1c6ca"/></g><path d="M220.5,170.46c-27.54,0-49.95-21.91-49.95-48.85S193,72.75,220.5,72.75s49.95,21.92,49.95,48.86S248.05,170.46,220.5,170.46Zm0-90.31C197,80.15,178,98.75,178,121.61S197,163.06,220.5,163.06s42.55-18.59,42.55-41.45S244,80.15,220.5,80.15Z" style="fill:#00090f"/><path d="M274.72,226.3a14.6,14.6,0,0,1-14.58-14.58v-12.8a14.58,14.58,0,1,1,29.16,0v12.8A14.6,14.6,0,0,1,274.72,226.3Zm0-34.56a7.19,7.19,0,0,0-7.18,7.18v12.8a7.18,7.18,0,1,0,14.36,0v-12.8A7.19,7.19,0,0,0,274.72,191.74Z" style="fill:#00090f"/><path d="M308.83,167.35H259.17c-8.59,0-15.56,7.51-15.56,16.78h0c0,9.27,7,16.78,15.56,16.78,7.91,0,16.92-3.73,24.83-3.73,8.64,0,16.19,3.73,24.83,3.73a15.26,15.26,0,0,0,11-4.91,17.46,17.46,0,0,0,4.55-11.87h0C324.38,174.86,317.42,167.35,308.83,167.35Z" style="fill:#ff9544"/><path d="M315.58,168.38a17.76,17.76,0,0,1,1.67,7.54,17.37,17.37,0,0,1-4.56,11.86,15.21,15.21,0,0,1-11,4.92c-8.64,0-16.19-3.73-24.83-3.73C269,189,260,192.7,252,192.7a14.57,14.57,0,0,1-6.75-1.68,15.45,15.45,0,0,0,13.88,9.24c7.91,0,16.92-3.73,24.83-3.73,8.64,0,16.19,3.73,24.83,3.73a15.26,15.26,0,0,0,11-4.91,17.46,17.46,0,0,0,4.55-11.87h0A16.92,16.92,0,0,0,315.58,168.38Z" style="fill:#ff7b38"/><path d="M308.83,204.61a57.58,57.58,0,0,1-13.25-2A51.44,51.44,0,0,0,284,200.88a56.89,56.89,0,0,0-11.62,1.78,62.66,62.66,0,0,1-13.21,2c-10.62,0-19.26-9.19-19.26-20.48s8.64-20.49,19.26-20.49h49.66c10.61,0,19.25,9.19,19.25,20.49a21,21,0,0,1-5.54,14.38A18.8,18.8,0,0,1,308.83,204.61ZM284,193.48a58,58,0,0,1,13.24,2,51.61,51.61,0,0,0,11.59,1.77,11.55,11.55,0,0,0,8.28-3.73,13.67,13.67,0,0,0,3.57-9.35c0-7.21-5.32-13.08-11.85-13.08H259.17c-6.54,0-11.85,5.87-11.85,13.08s5.31,13.08,11.85,13.08a56.31,56.31,0,0,0,11.62-1.78A62.66,62.66,0,0,1,284,193.48Z" style="fill:#00090f"/><ellipse cx="285.57" cy="166.76" rx="21.56" ry="13.03" style="fill:#00090f"/><path d="M159.66,247.37s40.92,37.44,51,57.22l-19.4-35.34,71.32,25.45Z" style="fill:#cfd2a9"/><path d="M403.91,245.35S369.63,274.11,354.07,305l19-36.72-70.43,27.8Z" style="fill:#cfd2a9"/><path d="M124,262.33s-3.13-35.63,5.15-35.2c0,0,39.54,30.72,59,52.56,0,0,29.54,33.63,43.25,77.95,0,0,25.81,79.73-12.36,160.43,0,0-27.37,5.64-63.11-32.33,0,0-27.51-24-37.74-85.47,0,0,1.59-57.58,6.32-92.33Z" style="fill:#fffcff"/><g style="opacity:0.30000000000000004"><path d="M176.89,356.46l-1.19-38.8a6.19,6.19,0,0,0-3-5.11l-15.46-9.23-10.16-27.55c9.32,7.85,38.14,32.62,53.7,51.14a252.38,252.38,0,0,1,32.92,55.7,189.32,189.32,0,0,0-5-23.78c-13.16-45.24-41.52-79.57-41.52-79.57-18.74-22.29-56.7-53.66-56.7-53.66-5.71,1.4-5.45,26-5.45,26,.15,5.63.5,9.94.5,9.94l.54,46.56c-4.54,35.48-6.07,94.25-6.07,94.25,5.47,86.69,76.71,114.42,76.41,112.52,0,0-73-54-56.73-159.11l-.53-46.57a181.84,181.84,0,0,1-.42-20.44l7.7,20.9A6.19,6.19,0,0,0,149,312.8l14.43,8.61,1.15,37.42a6.13,6.13,0,0,0,1.28,3.56c.31.42,31.74,41.33,35.94,47.4a6.17,6.17,0,0,0,10.15-7C208.05,397.09,182.84,364.21,176.89,356.46Z" style="fill:#d1c6ca"/></g><path d="M215,522.07c-9.79,0-33.26-3.67-61.55-33.67-2.47-2.23-28.76-27.12-38.82-87.53a4.17,4.17,0,0,1,0-.71c0-.57,1.64-57.87,6.32-92.45l-.56-45.2c-.63-7.27-2.14-30.68,4-37a6.41,6.41,0,0,1,5.08-2.07,3.73,3.73,0,0,1,2.08.77c1.63,1.26,40,31.18,59.54,53,1.25,1.42,30.24,34.76,44,79.32.26.79,6.61,20.69,8.3,50.84,1.55,27.82-.8,69.87-20.85,112.26a3.69,3.69,0,0,1-2.6,2.05A26.88,26.88,0,0,1,215,522.07ZM122,400c9.94,59.22,36.2,82.71,36.47,82.94a3.07,3.07,0,0,1,.26.25c28.63,30.42,51.59,31.71,57.94,31.41,35.84-77.84,11.56-155,11.31-155.83-13.32-43-42.22-76.31-42.51-76.64-16.53-18.5-48.16-43.89-56.49-50.48-1.8,4.05-2.4,17.19-1.24,30.34,0,.09,0,.19,0,.28l.56,45.61a4.93,4.93,0,0,1,0,.55C123.77,341.18,122.09,395.1,122,400Z" style="fill:#00090f"/><path d="M210,407.7a3.71,3.71,0,0,1-3.05-1.6c-4.23-6.12-35.69-47.09-36-47.5a3.74,3.74,0,0,1-.77-2.14L169,317.7l-15.59-9.31a3.66,3.66,0,0,1-1.58-1.89l-28-76a3.7,3.7,0,1,1,6.94-2.56l27.55,74.73,16.21,9.67a3.66,3.66,0,0,1,1.8,3.06l1.23,39.6c4.88,6.36,31.48,41,35.5,46.85a3.7,3.7,0,0,1-.94,5.15A3.62,3.62,0,0,1,210,407.7Z" style="fill:#00090f"/><path d="M440.16,257s3-36.36-5-35.92c0,0-38,31.36-56.7,53.65,0,0-28.36,34.33-41.52,79.58,0,0-24.78,81.38,11.87,163.76,0,0,27.6,5.77,61.91-33,0,0,25.1-24.51,34.92-87.26,0,0-1.53-58.78-6.07-94.25Z" style="fill:#fffcff"/><g style="opacity:0.4"><path d="M388.67,351.22l1.2-38.8a6.16,6.16,0,0,1,3-5.11l15.46-9.23,10.16-27.55c-9.31,7.85-38.13,32.62-53.7,51.14a252.84,252.84,0,0,0-32.92,55.7,189.32,189.32,0,0,1,5-23.78C350,308.35,378.4,274,378.4,274c18.74-22.29,56.71-53.66,56.71-53.66,5.7,1.4,5.44,26,5.44,26-.14,5.63-.5,9.94-.5,9.94l-.54,46.56c4.54,35.48,6.07,94.25,6.07,94.25-5.47,86.69-76.71,114.42-76.41,112.52,0,0,73.05-54,56.73-159.11l.54-46.57a184.72,184.72,0,0,0,.42-20.45l-7.71,20.91a6.17,6.17,0,0,1-2.62,3.16l-14.44,8.61-1.15,37.42a6.19,6.19,0,0,1-1.27,3.56c-.32.42-31.75,41.33-35.95,47.4a6.17,6.17,0,1,1-10.15-7C357.51,391.84,382.72,359,388.67,351.22Z" style="fill:#d1c6ca"/></g><path d="M353,522.08a26.47,26.47,0,0,1-4.92-.39,3.71,3.71,0,0,1-2.62-2.12c-36.79-82.69-12.28-165.53-12-166.35,13.21-45.41,41-79.43,42.21-80.85,18.76-22.32,55.64-52.87,57.2-54.16a3.66,3.66,0,0,1,2.15-.84,6.35,6.35,0,0,1,4.9,2c6,6.19,4.56,30.33,3.95,37.82l-.54,46.17c4.49,35.28,6.06,93.78,6.07,94.37a3.77,3.77,0,0,1,0,.67c-9.68,61.84-33.83,87.17-35.89,89.23C386.25,518.31,362.86,522.08,353,522.08Zm-1.64-7.47c6.38.31,29.23-1.05,56.62-32a1.8,1.8,0,0,1,.19-.2c.23-.23,24.28-24.55,33.79-84.85-.13-4.83-1.74-60-6-93.54a4.41,4.41,0,0,1,0-.52l.54-46.56a2.26,2.26,0,0,1,0-.26c1.09-13.23.54-26.48-1.14-30.9-8.38,7.06-38.27,32.62-54,51.32-.26.31-28,34.28-40.81,78.22C340.29,356.17,317,435.17,351.38,514.61Z" style="fill:#00090f"/><path d="M357,404.59a3.77,3.77,0,0,1-2.07-.63,3.71,3.71,0,0,1-1-5.14c3.69-5.47,30.61-40.49,35.53-46.89l1.23-39.59a3.69,3.69,0,0,1,1.8-3.07l16.1-9.61,23.82-79a3.7,3.7,0,0,1,7.08,2.14l-24.23,80.34a3.66,3.66,0,0,1-1.65,2.11L398,314.59l-1.19,38.76a3.8,3.8,0,0,1-.77,2.15c-.32.41-32.14,41.76-36,47.46A3.68,3.68,0,0,1,357,404.59Z" style="fill:#00090f"/><path d="M285.47,398.08a3.72,3.72,0,0,1-2.2-.73l-28.69-21.23a3.7,3.7,0,0,1-1.16-4.51l29.17-64a3.7,3.7,0,0,1,3.35-2.17h0a3.71,3.71,0,0,1,3.35,2.12l29.54,62.78a3.68,3.68,0,0,1-1,4.44c-.9.74-22.21,18.07-30.53,22.83A3.78,3.78,0,0,1,285.47,398.08ZM261.39,372l24.28,18c7.08-4.59,20-14.89,25.25-19.07L286,317.93Z" style="fill:#00090f"/><rect x="264.7" y="287.45" width="42.9" height="37.73" rx="14.8" style="fill:#ff3d00"/><g style="opacity:0.5"><path d="M297.93,287.91a14.66,14.66,0,0,1,1.67,6.78v8.13c.34,18.3-20.25,21.62-20.53,21.71h13.29a14.84,14.84,0,0,0,14.8-14.8v-8.12A14.85,14.85,0,0,0,297.93,287.91Z" style="fill:#9e1e07"/></g><path d="M292.79,328.88H279.5a18.52,18.52,0,0,1-18.5-18.5v-8.12a18.52,18.52,0,0,1,18.5-18.51h13.29a18.52,18.52,0,0,1,18.5,18.51v8.12A18.52,18.52,0,0,1,292.79,328.88ZM279.5,291.16a11.11,11.11,0,0,0-11.1,11.1v8.12a11.11,11.11,0,0,0,11.1,11.1h13.29a11.11,11.11,0,0,0,11.1-11.1v-8.12a11.11,11.11,0,0,0-11.1-11.1Z" style="fill:#00090f"/></g></g></svg>