<svg xmlns="http://www.w3.org/2000/svg" xmlns:xlink="http://www.w3.org/1999/xlink" style="isolation:isolate" viewBox="0 0 24 24" version="1.1"><defs><clipPath id="clip-a-33"><rect width="13" height="24" x="0" y="0"/></clipPath><clipPath id="clip-b-33"><rect width="12" height="24" x="12" y="0"/></clipPath></defs><g style="fill: #f4511e" clip-path="url(#clip-a-33)"><circle cy="10" cx="12" r="9"/><rect width="10" height="9" x="7" y="14" rx="1.6666667" ry="1"/></g><g style="fill: #e64a19" clip-path="url(#clip-b-33)"><circle cy="10" cx="12" r="9"/><rect width="10" height="9" x="7" y="14" rx="1.6666667" ry="1"/></g><g style="fill: #9575cd" clip-path="url(#clip-a-33)"><rect width="6" height="1" x="9.7279215" y="0.20710692" transform="rotate(45)"/><rect transform="rotate(135)" y="-13.227921" x="-2.2928932" height="1" width="6"/><rect transform="rotate(45)" y="-4.7426405" x="14.67767" height="1" width="6"/><rect width="6" height="1" x="-7.2426405" y="-18.17767" transform="rotate(135)"/></g><g style="fill: #7e57c2" clip-path="url(#clip-b-33)"><rect width="6" height="1" x="9.7279215" y="0.20710692" transform="rotate(45)"/><rect transform="rotate(135)" y="-13.227921" x="-2.2928932" height="1" width="6"/><rect transform="rotate(45)" y="-4.7426405" x="14.67767" height="1" width="6"/><rect width="6" height="1" x="-7.2426405" y="-18.17767" transform="rotate(135)"/></g><g style="fill: #9575cd" clip-path="url(#clip-a-33)"><path d="m 12,17.5 c 2.33,0 4.31,-1.46 5.11,-3.5 H 6.89 c 0.8,2.04 2.78,3.5 5.11,3.5 z"/></g><g style="fill: #7e57c2" clip-path="url(#clip-b-33)"><path d="m 12,17.5 c 2.33,0 4.31,-1.46 5.11,-3.5 H 6.89 c 0.8,2.04 2.78,3.5 5.11,3.5 z"/></g></svg>