<svg xmlns="http://www.w3.org/2000/svg" xmlns:xlink="http://www.w3.org/1999/xlink" style="isolation:isolate" viewBox="0 0 24 24" version="1.1"><defs><clipPath id="clip-a-22"><rect width="13" height="24" x="0" y="0"/></clipPath><clipPath id="clip-b-22"><rect width="12" height="24" x="12" y="0"/></clipPath></defs><g style="fill: #1e88e5" clip-path="url(#clip-a-22)"><path d="M 7,2 6,6 H 2 l 2,8 -2,8 H 22 L 20,14 22,6 H 18 L 17,2 Z"/></g><g style="fill: #1976d2" clip-path="url(#clip-b-22)"><path d="M 7,2 6,6 H 2 l 2,8 -2,8 H 22 L 20,14 22,6 H 18 L 17,2 Z"/></g><g style="fill: #eeeeee" clip-path="url(#clip-a-22)"><path d="M 15.5,7 C 14.116667,7 13,8.1166667 13,9.5 13,10.883333 14.116667,12 15.5,12 16.883333,12 18,10.883333 18,9.5 18,8.1166667 16.883333,7 15.5,7 Z m 0,1 C 16.33,8 17,8.67 17,9.5 17,10.33 16.33,11 15.5,11 14.67,11 14,10.33 14,9.5 14,8.67 14.67,8 15.5,8 Z"/><path d="M 8.5,7 C 7.116667,7 6,8.1166667 6,9.5 6,10.883333 7.116667,12 8.5,12 9.883333,12 11,10.883333 11,9.5 11,8.1166667 9.883333,7 8.5,7 Z m 0,1 C 9.33,8 10,8.67 10,9.5 10,10.33 9.33,11 8.5,11 7.67,11 7,10.33 7,9.5 7,8.67 7.67,8 8.5,8 Z"/><path d="m 12,8 c -0.989493,0 -1.8112,0.857662 -2,2 h 0.753315 C 10.935894,9.418302 11.466399,9 12,9 c 0.533601,0 1.064106,0.418302 1.246685,1 H 14 C 13.8112,8.857662 12.989493,8 12,8 Z"/></g><g style="fill: #e0e0e0" clip-path="url(#clip-b-22)"><path d="M 15.5,7 C 14.116667,7 13,8.1166667 13,9.5 13,10.883333 14.116667,12 15.5,12 16.883333,12 18,10.883333 18,9.5 18,8.1166667 16.883333,7 15.5,7 Z m 0,1 C 16.33,8 17,8.67 17,9.5 17,10.33 16.33,11 15.5,11 14.67,11 14,10.33 14,9.5 14,8.67 14.67,8 15.5,8 Z"/><path d="M 8.5,7 C 7.116667,7 6,8.1166667 6,9.5 6,10.883333 7.116667,12 8.5,12 9.883333,12 11,10.883333 11,9.5 11,8.1166667 9.883333,7 8.5,7 Z m 0,1 C 9.33,8 10,8.67 10,9.5 10,10.33 9.33,11 8.5,11 7.67,11 7,10.33 7,9.5 7,8.67 7.67,8 8.5,8 Z"/><path d="m 12,8 c -0.989493,0 -1.8112,0.857662 -2,2 h 0.753315 C 10.935894,9.418302 11.466399,9 12,9 c 0.533601,0 1.064106,0.418302 1.246685,1 H 14 C 13.8112,8.857662 12.989493,8 12,8 Z"/></g><g style="fill: #eeeeee" clip-path="url(#clip-a-22)"><path d="m 12,14 c 2.33,0 4.31,1.46 5.11,3.5 H 6.89 C 7.69,15.46 9.67,14 12,14 Z"/><path d="m 8,16 1,5 1,-5 z"/><path d="m 14,16 1,5 1,-5 z"/></g><g style="fill: #e0e0e0" clip-path="url(#clip-b-22)"><path d="m 12,14 c 2.33,0 4.31,1.46 5.11,3.5 H 6.89 C 7.69,15.46 9.67,14 12,14 Z"/><path d="m 8,16 1,5 1,-5 z"/><path d="m 14,16 1,5 1,-5 z"/></g></svg>