<svg xmlns="http://www.w3.org/2000/svg" xmlns:xlink="http://www.w3.org/1999/xlink" style="isolation:isolate" viewBox="0 0 24 24" version="1.1"><defs><clipPath id="clip-a-29"><rect width="13" height="24" x="0" y="0"/></clipPath><clipPath id="clip-b-29"><rect width="12" height="24" x="12" y="0"/></clipPath></defs><g style="fill: #00acc1" clip-path="url(#clip-a-29)"><path d="M 14.444444,0.99999994 12,3.4444444 9.5555556,0.99999994 0.99999994,9.5555556 3.4444444,12 0.99999994,14.444444 9.5555556,23 12,20.555556 14.444444,23 23,14.444444 20.555556,12 23,9.5555556 Z"/></g><g style="fill: #0097a7" clip-path="url(#clip-b-29)"><path d="M 14.444444,0.99999994 12,3.4444444 9.5555556,0.99999994 0.99999994,9.5555556 3.4444444,12 0.99999994,14.444444 9.5555556,23 12,20.555556 14.444444,23 23,14.444444 20.555556,12 23,9.5555556 Z"/></g><g style="fill: #fff176" clip-path="url(#clip-a-29)"><path d="m 12,8 c -0.989493,0 -1.8112,0.857662 -2,2 h 0.753315 C 10.935894,9.418302 11.466399,9 12,9 c 0.533601,0 1.064106,0.418302 1.246685,1 H 14 C 13.8112,8.857662 12.989493,8 12,8 Z"/><rect width="6" height="6" x="5" y="7" rx="1" ry="1"/><rect ry="1" rx="1" y="7" x="13" height="6" width="6"/></g><g style="fill: #ffee58" clip-path="url(#clip-b-29)"><path d="m 12,8 c -0.989493,0 -1.8112,0.857662 -2,2 h 0.753315 C 10.935894,9.418302 11.466399,9 12,9 c 0.533601,0 1.064106,0.418302 1.246685,1 H 14 C 13.8112,8.857662 12.989493,8 12,8 Z"/><rect width="6" height="6" x="5" y="7" rx="1" ry="1"/><rect ry="1" rx="1" y="7" x="13" height="6" width="6"/></g><g style="fill: #fff176" clip-path="url(#clip-a-29)"><path d="M 7.5,15 C 7.223,15 7,15.223 7,15.5 V 16 H 6.5 C 6.223,16 6,16.223 6,16.5 6,16.777 6.223,17 6.5,17 H 7 v 0.5 C 7,17.777 7.223,18 7.5,18 7.777,18 8,17.777 8,17.5 V 17 h 2 v 0.5 c 0,0.277 0.223,0.5 0.5,0.5 0.277,0 0.5,-0.223 0.5,-0.5 V 17 h 2 v 0.5 c 0,0.277 0.223,0.5 0.5,0.5 0.277,0 0.5,-0.223 0.5,-0.5 V 17 h 2 v 0.5 c 0,0.277 0.223,0.5 0.5,0.5 0.277,0 0.5,-0.223 0.5,-0.5 V 17 h 0.5 C 17.777,17 18,16.777 18,16.5 18,16.223 17.777,16 17.5,16 H 17 V 15.5 C 17,15.223 16.777,15 16.5,15 16.223,15 16,15.223 16,15.5 V 16 H 14 V 15.5 C 14,15.223 13.777,15 13.5,15 13.223,15 13,15.223 13,15.5 V 16 H 11 V 15.5 C 11,15.223 10.777,15 10.5,15 10.223,15 10,15.223 10,15.5 V 16 H 8 V 15.5 C 8,15.223 7.777,15 7.5,15 Z"/></g><g style="fill: #ffee58" clip-path="url(#clip-b-29)"><path d="M 7.5,15 C 7.223,15 7,15.223 7,15.5 V 16 H 6.5 C 6.223,16 6,16.223 6,16.5 6,16.777 6.223,17 6.5,17 H 7 v 0.5 C 7,17.777 7.223,18 7.5,18 7.777,18 8,17.777 8,17.5 V 17 h 2 v 0.5 c 0,0.277 0.223,0.5 0.5,0.5 0.277,0 0.5,-0.223 0.5,-0.5 V 17 h 2 v 0.5 c 0,0.277 0.223,0.5 0.5,0.5 0.277,0 0.5,-0.223 0.5,-0.5 V 17 h 2 v 0.5 c 0,0.277 0.223,0.5 0.5,0.5 0.277,0 0.5,-0.223 0.5,-0.5 V 17 h 0.5 C 17.777,17 18,16.777 18,16.5 18,16.223 17.777,16 17.5,16 H 17 V 15.5 C 17,15.223 16.777,15 16.5,15 16.223,15 16,15.223 16,15.5 V 16 H 14 V 15.5 C 14,15.223 13.777,15 13.5,15 13.223,15 13,15.223 13,15.5 V 16 H 11 V 15.5 C 11,15.223 10.777,15 10.5,15 10.223,15 10,15.223 10,15.5 V 16 H 8 V 15.5 C 8,15.223 7.777,15 7.5,15 Z"/></g></svg>