<svg xmlns="http://www.w3.org/2000/svg" xmlns:xlink="http://www.w3.org/1999/xlink" style="isolation:isolate" viewBox="0 0 24 24" version="1.1"><defs><clipPath id="clip-a-41"><rect width="13" height="24" x="0" y="0"/></clipPath><clipPath id="clip-b-41"><rect width="12" height="24" x="12" y="0"/></clipPath></defs><g style="fill: #f4511e" clip-path="url(#clip-a-41)"><path d="M 4,2 5.5976562,9.9882812 1.0507812,14.535156 2.4648438,15.949219 6.0683594,12.345703 8,22 h 8 l 1.931641,-9.654297 3.603515,3.603516 1.414063,-1.414063 L 18.402344,9.9882812 20,2 Z"/></g><g style="fill: #e64a19" clip-path="url(#clip-b-41)"><path d="M 4,2 5.5976562,9.9882812 1.0507812,14.535156 2.4648438,15.949219 6.0683594,12.345703 8,22 h 8 l 1.931641,-9.654297 3.603515,3.603516 1.414063,-1.414063 L 18.402344,9.9882812 20,2 Z"/></g><g style="fill: #81c784" clip-path="url(#clip-a-41)"><path d="M 15.5,7 C 14.116667,7 13,8.1166667 13,9.5 13,10.883333 14.116667,12 15.5,12 16.883333,12 18,10.883333 18,9.5 18,8.1166667 16.883333,7 15.5,7 Z m 0,1 C 16.33,8 17,8.67 17,9.5 17,10.33 16.33,11 15.5,11 14.67,11 14,10.33 14,9.5 14,8.67 14.67,8 15.5,8 Z"/><path d="M 8.5,7 C 7.116667,7 6,8.1166667 6,9.5 6,10.883333 7.116667,12 8.5,12 9.883333,12 11,10.883333 11,9.5 11,8.1166667 9.883333,7 8.5,7 Z m 0,1 C 9.33,8 10,8.67 10,9.5 10,10.33 9.33,11 8.5,11 7.67,11 7,10.33 7,9.5 7,8.67 7.67,8 8.5,8 Z"/><path d="m 12,8 c -0.989493,0 -1.8112,0.857662 -2,2 h 0.753315 C 10.935894,9.418302 11.466399,9 12,9 c 0.533601,0 1.064106,0.418302 1.246685,1 H 14 C 13.8112,8.857662 12.989493,8 12,8 Z"/></g><g style="fill: #66bb6a" clip-path="url(#clip-b-41)"><path d="M 15.5,7 C 14.116667,7 13,8.1166667 13,9.5 13,10.883333 14.116667,12 15.5,12 16.883333,12 18,10.883333 18,9.5 18,8.1166667 16.883333,7 15.5,7 Z m 0,1 C 16.33,8 17,8.67 17,9.5 17,10.33 16.33,11 15.5,11 14.67,11 14,10.33 14,9.5 14,8.67 14.67,8 15.5,8 Z"/><path d="M 8.5,7 C 7.116667,7 6,8.1166667 6,9.5 6,10.883333 7.116667,12 8.5,12 9.883333,12 11,10.883333 11,9.5 11,8.1166667 9.883333,7 8.5,7 Z m 0,1 C 9.33,8 10,8.67 10,9.5 10,10.33 9.33,11 8.5,11 7.67,11 7,10.33 7,9.5 7,8.67 7.67,8 8.5,8 Z"/><path d="m 12,8 c -0.989493,0 -1.8112,0.857662 -2,2 h 0.753315 C 10.935894,9.418302 11.466399,9 12,9 c 0.533601,0 1.064106,0.418302 1.246685,1 H 14 C 13.8112,8.857662 12.989493,8 12,8 Z"/></g><g style="fill: #81c784" clip-path="url(#clip-a-41)"><path d="M 7.5,15 C 7.223,15 7,15.223 7,15.5 V 16 H 6.5 C 6.223,16 6,16.223 6,16.5 6,16.777 6.223,17 6.5,17 H 7 v 0.5 C 7,17.777 7.223,18 7.5,18 7.777,18 8,17.777 8,17.5 V 17 h 2 v 0.5 c 0,0.277 0.223,0.5 0.5,0.5 0.277,0 0.5,-0.223 0.5,-0.5 V 17 h 2 v 0.5 c 0,0.277 0.223,0.5 0.5,0.5 0.277,0 0.5,-0.223 0.5,-0.5 V 17 h 2 v 0.5 c 0,0.277 0.223,0.5 0.5,0.5 0.277,0 0.5,-0.223 0.5,-0.5 V 17 h 0.5 C 17.777,17 18,16.777 18,16.5 18,16.223 17.777,16 17.5,16 H 17 V 15.5 C 17,15.223 16.777,15 16.5,15 16.223,15 16,15.223 16,15.5 V 16 H 14 V 15.5 C 14,15.223 13.777,15 13.5,15 13.223,15 13,15.223 13,15.5 V 16 H 11 V 15.5 C 11,15.223 10.777,15 10.5,15 10.223,15 10,15.223 10,15.5 V 16 H 8 V 15.5 C 8,15.223 7.777,15 7.5,15 Z"/></g><g style="fill: #66bb6a" clip-path="url(#clip-b-41)"><path d="M 7.5,15 C 7.223,15 7,15.223 7,15.5 V 16 H 6.5 C 6.223,16 6,16.223 6,16.5 6,16.777 6.223,17 6.5,17 H 7 v 0.5 C 7,17.777 7.223,18 7.5,18 7.777,18 8,17.777 8,17.5 V 17 h 2 v 0.5 c 0,0.277 0.223,0.5 0.5,0.5 0.277,0 0.5,-0.223 0.5,-0.5 V 17 h 2 v 0.5 c 0,0.277 0.223,0.5 0.5,0.5 0.277,0 0.5,-0.223 0.5,-0.5 V 17 h 2 v 0.5 c 0,0.277 0.223,0.5 0.5,0.5 0.277,0 0.5,-0.223 0.5,-0.5 V 17 h 0.5 C 17.777,17 18,16.777 18,16.5 18,16.223 17.777,16 17.5,16 H 17 V 15.5 C 17,15.223 16.777,15 16.5,15 16.223,15 16,15.223 16,15.5 V 16 H 14 V 15.5 C 14,15.223 13.777,15 13.5,15 13.223,15 13,15.223 13,15.5 V 16 H 11 V 15.5 C 11,15.223 10.777,15 10.5,15 10.223,15 10,15.223 10,15.5 V 16 H 8 V 15.5 C 8,15.223 7.777,15 7.5,15 Z"/></g></svg>